<svg width="1920" height="874" viewBox="0 0 1920 874" fill="none" xmlns="http://www.w3.org/2000/svg">
<g opacity="0.2">
<circle cx="91.372" cy="276.372" r="650.985" transform="rotate(1.19066 91.372 276.372)" fill="white"/>
<circle cx="91.372" cy="276.372" r="650.985" transform="rotate(1.19066 91.372 276.372)" fill="url(#paint0_linear)"/>
</g>
<g opacity="0.2">
<circle cx="1674.89" cy="32.8425" r="408.235" transform="rotate(96.6702 1674.89 32.8425)" fill="white"/>
<circle cx="1674.89" cy="32.8425" r="408.235" transform="rotate(96.6702 1674.89 32.8425)" fill="url(#paint1_linear)"/>
</g>
<g opacity="0.1">
<circle cx="120.46" cy="30.4602" r="298.184" transform="rotate(-52.5535 120.46 30.4602)" fill="white"/>
<circle cx="120.46" cy="30.4602" r="298.184" transform="rotate(-52.5535 120.46 30.4602)" fill="url(#paint2_linear)"/>
</g>
<g opacity="0.2">
<circle cx="1785.75" cy="836.753" r="523.363" transform="rotate(-130.366 1785.75 836.753)" fill="white"/>
<circle cx="1785.75" cy="836.753" r="523.363" transform="rotate(-130.366 1785.75 836.753)" fill="url(#paint3_linear)"/>
</g>
<defs>
<linearGradient id="paint0_linear" x1="676.741" y1="614.815" x2="-680.486" y2="120.964" gradientUnits="userSpaceOnUse">
<stop stop-color="#EF7548"/>
<stop offset="1" stop-color="white" stop-opacity="0"/>
</linearGradient>
<linearGradient id="paint1_linear" x1="2041.98" y1="245.081" x2="1190.86" y2="-64.6141" gradientUnits="userSpaceOnUse">
<stop stop-color="#EF7548"/>
<stop offset="1" stop-color="white" stop-opacity="0"/>
</linearGradient>
<linearGradient id="paint2_linear" x1="486.359" y1="208.142" x2="-331.685" y2="-110.041" gradientUnits="userSpaceOnUse">
<stop offset="0.234375" stop-color="#EF7548"/>
<stop offset="1" stop-color="white" stop-opacity="0"/>
</linearGradient>
<linearGradient id="paint3_linear" x1="2427.97" y1="1148.61" x2="992.163" y2="590.15" gradientUnits="userSpaceOnUse">
<stop offset="0.234375" stop-color="#EF7548"/>
<stop offset="1" stop-color="white" stop-opacity="0"/>
</linearGradient>
</defs>
</svg>
