<svg width="74" height="71" viewBox="0 0 74 71" fill="none" xmlns="http://www.w3.org/2000/svg">
<path d="M73.9641 54.1587C73.6747 52.7443 72.9118 51.4617 71.8067 50.5392C71.8067 48.2815 71.5173 41.2182 70.2106 36.7554C68.1848 29.982 63.949 24.0872 58.1784 20.0109C60.0639 17.5159 63.4403 12.5347 62.8527 9.37208C62.6949 8.37057 62.0898 7.49206 61.204 6.9913C58.1872 5.23428 54.1881 6.41148 51.8904 7.37785C51.829 7.14944 51.7501 6.92981 51.6449 6.71896C49.7857 3.24883 40.7176 1.39517 38.9198 1.02619C38.4725 0.938342 38.0077 1.06133 37.6657 1.36003C37.3149 1.65872 37.1308 2.10677 37.1483 2.56359L37.2448 4.68081C34.2542 3.35426 29.1239 1.72022 25.6247 3.95164C24.6951 4.54025 24.0549 5.49783 23.8707 6.58719C23.783 7.1143 23.7655 7.65897 23.8181 8.19487C22.8798 7.67654 16.8987 4.57539 12.7593 6.98252C11.8824 7.48327 11.2685 8.36179 11.1106 9.36329C10.5406 12.5259 13.8994 17.5071 15.7849 20.0021C10.0319 24.0872 5.80485 29.9908 3.78779 36.7554C2.48108 41.2182 2.23552 48.2815 2.19167 50.5392C1.08667 51.4617 0.323694 52.7443 0.0342891 54.1587C-0.114798 55.3008 0.227226 56.4604 0.963893 57.3477C3.21774 60.1678 8.0587 58.9291 9.94422 58.2965C10.9352 58.8412 11.9788 59.2805 13.0575 59.6055C11.4439 61.3625 9.94422 64.3495 12.0314 67.231C14.5747 70.7451 20.1611 69.1198 22.2834 68.3292C24.4671 69.6381 26.8963 70.4727 29.4133 70.7978C31.0094 71.0086 36.6835 70.9998 37.3763 70.9998H37.8323C39.3671 70.9998 43.8835 70.9998 45.2867 70.7978C47.8037 70.4727 50.2329 69.6206 52.4078 68.3116C54.5389 69.1022 60.1165 70.7187 62.6598 67.2134C64.8259 64.2353 63.1509 61.1605 61.4759 59.4122C62.3704 59.1135 63.2298 58.7358 64.0542 58.279C65.9485 58.9115 70.7894 60.1502 73.0433 57.3302C73.78 56.4516 74.1132 55.3008 73.9641 54.1587ZM59.7131 9.57413C59.8359 9.63563 59.9061 9.75862 59.9148 9.89919C60.2569 11.7968 57.1786 16.5847 54.8634 19.3959C53.7672 20.5292 52.25 21.1617 50.6714 21.153C49.1191 21.1881 47.6195 20.6171 46.4794 19.5628C48.5491 16.9097 50.2329 13.9843 51.4958 10.8656C52.9691 10.031 57.2839 8.16851 59.7131 9.57413ZM26.87 7.13187C26.8963 6.85953 27.0367 6.62233 27.2647 6.47298C30.1587 4.6281 36.0959 7.27243 38.1481 8.44085C38.8584 8.85375 39.7617 8.61655 40.1739 7.90496C40.323 7.65019 40.3931 7.36906 40.3756 7.07915L40.2528 4.35576C44.2694 5.30456 48.3737 6.85953 49.0227 8.12459C49.4612 9.0646 47.1898 13.9931 42.4891 19.8879C39.7003 22.4795 35.3505 22.3477 32.7283 19.5892C30.1587 16.1542 26.3526 9.81133 26.87 7.13187ZM14.0836 9.89919C14.0924 9.75862 14.1625 9.63563 14.2853 9.57413C16.7145 8.16851 21.0293 10.0222 22.5377 10.8831L24.9407 12.1482C25.9053 14.4323 27.0805 16.6198 28.4486 18.6843L27.5716 19.5101C26.4403 20.5907 24.9231 21.1881 23.3621 21.1617C21.7835 21.1793 20.2663 20.538 19.1613 19.4047C16.8198 16.5847 13.7153 11.7968 14.0836 9.89919ZM9.55835 55.2657C8.02362 55.8718 4.29644 56.7679 3.2879 55.4853C3.06866 55.2481 2.96342 54.9318 2.98973 54.6068C3.26159 53.7546 3.80532 53.0079 4.54199 52.4895C4.92787 52.2084 5.16465 51.7604 5.16465 51.286C5.16465 51.1981 5.23481 42.5008 6.64676 37.6163C8.54981 31.3789 12.4962 25.9672 17.8546 22.2511C19.4244 23.4898 21.3626 24.1575 23.3621 24.1487C24.0198 24.1487 24.6776 24.0784 25.3178 23.9466C20.5645 28.8575 17.1443 34.9017 15.3991 41.5169C14.1976 46.05 13.7766 52.7355 13.6451 56.6361C12.7243 56.3374 11.8385 55.9333 11.0141 55.4238C10.5932 55.1163 10.0407 55.0548 9.55835 55.2657ZM60.2481 65.474C58.9852 67.231 54.6968 66.0977 52.82 65.2807C52.3201 65.0611 51.7413 65.1402 51.3116 65.474C49.391 66.7742 47.1898 67.5912 44.8921 67.8548C43.6994 68.0129 39.0777 68.0393 37.3149 68.0305C35.5522 68.0217 30.9919 68.0305 29.8079 67.8548C27.5015 67.5824 25.2915 66.7654 23.3621 65.474C23.1165 65.2719 22.8008 65.1665 22.4851 65.1577C22.2834 65.1577 22.0817 65.2016 21.8888 65.2807C20.012 66.0977 15.7499 67.2134 14.4607 65.474C12.9611 63.4007 15.8463 61.0814 15.9603 60.9672C16.3199 60.6861 16.5304 60.2556 16.5304 59.7988C16.5304 59.6934 16.6181 48.5362 18.2843 42.29C20.3803 34.4185 25.0108 27.4519 31.4479 22.4795C33.2194 23.9466 35.4469 24.7461 37.7446 24.7285C39.902 24.7373 42.0068 24.0345 43.7257 22.7343C49.9874 27.6803 54.4512 34.5503 56.442 42.2812C58.0995 48.5187 58.1959 59.6846 58.1959 59.79C58.1959 60.2468 58.4064 60.6773 58.766 60.9584C58.8712 61.0638 61.7477 63.4095 60.2481 65.474ZM70.7193 55.4853C69.7897 56.6449 66.4221 56.0387 64.4488 55.2657C63.984 55.0812 63.4579 55.1427 63.0457 55.4238C62.423 55.8191 61.7653 56.1442 61.0724 56.3989C60.9234 52.4632 60.5024 45.9622 59.3185 41.5257C57.6171 34.9983 54.3021 28.9981 49.6716 24.096C49.9961 24.1311 50.3294 24.1487 50.6539 24.1487C52.6446 24.1487 54.574 23.481 56.135 22.2511C61.4846 25.9584 65.4398 31.3613 67.3517 37.59C68.7636 42.4481 68.8425 51.1718 68.8425 51.2596C68.8425 51.7428 69.0706 52.1909 69.4652 52.4632C70.1931 52.9815 70.7281 53.7195 71.0087 54.5716C71.0525 54.9055 70.9473 55.2393 70.7193 55.4853Z" fill="#EC563B"/>
<path d="M48 41.1071H45.1698C44.2415 39.1357 42.0226 38 38.8755 38H32.3774V41.1071H30V42.5857H32.3774V44.0643H30V45.5429H32.3774V53H35.3208V48.6714H38.8755C42.0226 48.6714 44.2642 47.5143 45.1698 45.5429H48V44.0643H45.5774C45.6 43.8286 45.6226 43.5929 45.6226 43.3357C45.6226 43.0786 45.6 42.8214 45.5774 42.5857H48V41.1071ZM35.3208 40.3571H38.7623C40.0302 40.3571 40.9811 40.6143 41.6377 41.1071H35.3208V40.3571ZM42.6566 43.3357C42.6566 43.5929 42.634 43.8286 42.5887 44.0643H35.3208V42.5857H42.5887C42.634 42.8214 42.6566 43.0786 42.6566 43.3357ZM38.7623 46.3143H35.3208V45.5429H41.6604C41.0038 46.0357 40.0528 46.3143 38.7623 46.3143Z" fill="#EC563B"/>
</svg>
