<svg width="72" height="70" viewBox="0 0 72 70" fill="none" xmlns="http://www.w3.org/2000/svg">
<path d="M39.3733 39.8487C28.3986 39.8487 19.5059 30.9559 19.5059 19.9812C19.5059 9.0065 28.3986 0.11377 39.3733 0.11377C50.348 0.11377 59.2408 9.0065 59.2408 19.9812C59.2323 30.9475 50.3396 39.8402 39.3733 39.8487ZM39.3733 2.9881C29.9833 2.9881 22.3718 10.5996 22.3718 19.9897C22.3718 29.3797 29.9833 36.9912 39.3733 36.9912C48.7634 36.9912 56.3749 29.3797 56.3749 19.9897V19.9812C56.358 10.5996 48.7549 2.99653 39.3733 2.9881Z" fill="#EC563B"/>
<path d="M70.7128 45.0748C69.0438 43.0771 66.2032 42.5292 63.9105 43.7682L62.3427 41.8633C60.9266 40.2027 58.4905 39.8403 56.653 41.0203L55.1105 42.0403L54.1833 40.9361C52.7672 39.2755 50.3396 38.9131 48.502 40.0931L38.0331 46.9123L26.4009 42.1246C22.7342 40.6242 18.5449 41.2311 15.443 43.6924L0.607723 55.4932C-0.0413202 55.9483 -0.193045 56.8418 0.262128 57.4909C0.717301 58.1399 1.61079 58.2916 2.25983 57.8365C2.31041 57.8027 2.35255 57.769 2.3947 57.7269L17.23 45.9261C19.5311 44.097 22.6415 43.6502 25.3556 44.7713L45.9227 53.2004C47.2629 53.7989 47.8614 55.3751 47.2545 56.707C46.6898 57.9713 45.24 58.5866 43.9419 58.123L30.0254 52.6947C29.3089 52.366 28.4576 52.6778 28.1288 53.4027C27.8001 54.1192 28.112 54.9706 28.8369 55.2993C28.8874 55.3246 28.938 55.3414 28.9886 55.3583L42.8629 60.8288C43.5036 61.0817 44.1863 61.2081 44.8775 61.2081C47.8277 61.1997 50.2553 58.8901 50.407 55.9399L50.5672 55.8556L65.0653 46.3897C66.2959 45.6226 67.9227 46.002 68.6898 47.2326C69.4147 48.3958 69.1197 49.9215 68.0155 50.7391L48.3756 64.6641C45.8553 66.4595 42.6438 67.0073 39.6683 66.156L23.0882 61.4863C20.0369 60.6265 16.7579 61.3093 14.3051 63.3154L9.83762 66.9821C9.23072 67.4878 9.15486 68.3982 9.66904 69.0051C9.93877 69.3254 10.3349 69.5108 10.748 69.5108C11.0767 69.5108 11.397 69.4012 11.6499 69.1905L16.1595 65.566C17.8874 64.1499 20.197 63.6694 22.3464 64.2763L38.8844 68.9376C42.6859 70.0081 46.7741 69.3001 49.994 66.9989L69.676 53.074C72.1542 51.3292 72.7442 47.8985 70.9909 45.4288C70.8982 45.3023 70.8055 45.1843 70.7128 45.0748ZM50.0024 42.487C50.6346 42.0824 51.4691 42.2089 51.9495 42.782L52.6576 43.6249L43.9672 49.3483L41.2445 48.2273L50.0024 42.487ZM49.6821 52.9981C49.1089 51.9698 48.2239 51.1606 47.1534 50.6717L58.1871 43.4142C58.8193 43.018 59.6453 43.1361 60.1342 43.7008L61.466 45.3361L49.6821 52.9981Z" fill="#EC563B"/>
<path d="M48.4972 15.8594H45.9685C45.139 13.9982 43.1565 12.9261 40.3446 12.9261H34.5386V15.8594H32.4144V17.2553H34.5386V18.6511H32.4144V20.047H34.5386V27.087H37.1685V23.0006H40.3446C43.1565 23.0006 45.1593 21.9081 45.9685 20.047H48.4972V18.6511H46.3326C46.3528 18.4286 46.3731 18.2061 46.3731 17.9633C46.3731 17.7205 46.3528 17.4778 46.3326 17.2553H48.4972V15.8594ZM37.1685 15.1513H40.2434C41.3763 15.1513 42.2259 15.3941 42.8126 15.8594H37.1685V15.1513ZM43.7229 17.9633C43.7229 18.2061 43.7027 18.4286 43.6623 18.6511H37.1685V17.2553H43.6623C43.7027 17.4778 43.7229 17.7205 43.7229 17.9633ZM40.2434 20.7753H37.1685V20.047H42.8328C42.2462 20.5123 41.3965 20.7753 40.2434 20.7753Z" fill="#EC563B"/>
</svg>
