<svg width="66" height="66" viewBox="0 0 66 66" fill="none" xmlns="http://www.w3.org/2000/svg">
<path d="M33 0C14.7751 0 0 14.7751 0 33C0 51.2249 14.7751 66 33 66C51.2249 66 66 51.2249 66 33V32.9925C65.9776 14.7751 51.2174 0.0149018 33 0ZM33 63.4592C16.1759 63.4592 2.5333 49.8167 2.5333 32.9925C2.5333 16.1684 16.1759 2.52585 33 2.52585C49.8241 2.52585 63.4667 16.1684 63.4667 32.9925C63.4518 49.8092 49.8167 63.4443 33 63.4592Z" fill="#EC563B"/>
<path d="M33 6.91443C18.5751 6.92933 6.89209 18.6421 6.907 33.0671C6.9219 47.492 18.6347 59.175 33.0596 59.1601C47.4846 59.1452 59.1675 47.4324 59.1526 33.0075C59.1526 33 59.1526 33 59.1526 32.9926C59.1154 18.5751 47.4175 6.90698 33 6.91443ZM33 56.6193C19.9684 56.6268 9.4105 46.0689 9.40304 33.0373C9.39559 20.0056 19.9535 9.44774 32.9851 9.44028C46.0018 9.43283 56.5597 19.9758 56.5821 32.9926C56.5672 46.0093 46.0167 56.5672 33 56.5821V56.6193Z" fill="#EC563B"/>
<path d="M43.8933 25.6981L34.2667 31.4427V13.352C34.2667 12.6516 33.7004 12.0853 33.0001 12.0853C32.2997 12.0853 31.7334 12.6516 31.7334 13.352V33.678C31.7334 34.1325 31.9793 34.5498 32.3742 34.7807C32.5679 34.8851 32.784 34.9447 33.0001 34.9447C33.231 34.9447 33.4546 34.8851 33.6483 34.7658L45.1897 27.8738C45.7858 27.5012 45.9646 26.7189 45.5921 26.1303C45.227 25.5565 44.4819 25.3628 43.8933 25.6981Z" fill="#EC563B"/>
<path d="M53.0279 31.7259H50.1668C49.4664 31.778 48.9374 32.389 48.997 33.0969C49.0417 33.7227 49.5409 34.2219 50.1668 34.2666H53.0279C53.7283 34.2145 54.2573 33.6035 54.1977 32.8957C54.153 32.2698 53.6538 31.7706 53.0279 31.7259Z" fill="#EC563B"/>
<path d="M15.8331 31.7259H12.9571C12.2567 31.778 11.7277 32.389 11.7873 33.0969C11.832 33.7227 12.3312 34.2219 12.9571 34.2666H15.8257C16.5261 34.2145 17.0551 33.6035 16.9955 32.8957C16.9508 32.2698 16.4516 31.7706 15.8257 31.7259H15.8331Z" fill="#EC563B"/>
<path d="M33.0001 48.252C32.2997 48.252 31.7334 48.8182 31.7334 49.5186V52.3649C31.7334 53.0652 32.2997 53.6315 33.0001 53.6315C33.7004 53.6315 34.2667 53.0652 34.2667 52.3649V49.5186C34.2667 48.8182 33.7004 48.252 33.0001 48.252Z" fill="#EC563B"/>
</svg>
